<?xml version="1.0" encoding="UTF-8" standalone="no"?>
<!DOCTYPE svg PUBLIC "-//W3C//DTD SVG 1.1//EN"
 "http://www.w3.org/Graphics/SVG/1.1/DTD/svg11.dtd">
<!-- Generated by graphviz version 2.43.0 (0)
 -->
<!-- Title: callgraph Pages: 1 -->
<svg width="1196pt" height="271pt"
 viewBox="0.00 0.00 1196.00 271.00" xmlns="http://www.w3.org/2000/svg" xmlns:xlink="http://www.w3.org/1999/xlink">
<g id="graph0" class="graph" transform="scale(1 1) rotate(0) translate(4 267)">
<title>callgraph</title>
<polygon fill="white" stroke="transparent" points="-4,4 -4,-267 1192,-267 1192,4 -4,4"/>
<!-- 0x2005995a71243be9fb995dab4742327dc76564df::_cbrt -->
<g id="node1" class="node">
<title>0x2005995a71243be9fb995dab4742327dc76564df::_cbrt</title>
<polygon fill="none" stroke="black" points="724,-112 428,-112 428,-76 724,-76 724,-112"/>
<text text-anchor="middle" x="576" y="-97" font-family="Times,serif" font-size="10.00">0x2005995a71243be9fb995dab4742327dc76564df._cbrt</text>
<text text-anchor="middle" x="576" y="-86" font-family="Times,serif" font-size="10.00">[internal]</text>
</g>
<!-- 0x2005995a71243be9fb995dab4742327dc76564df::_snekmate_log_2 -->
<g id="node3" class="node">
<title>0x2005995a71243be9fb995dab4742327dc76564df::_snekmate_log_2</title>
<polygon fill="none" stroke="black" points="1188,-112 831,-112 831,-76 1188,-76 1188,-112"/>
<text text-anchor="middle" x="1009.5" y="-97" font-family="Times,serif" font-size="10.00">0x2005995a71243be9fb995dab4742327dc76564df._snekmate_log_2</text>
<text text-anchor="middle" x="1009.5" y="-86" font-family="Times,serif" font-size="10.00">[internal]</text>
</g>
<!-- 0x2005995a71243be9fb995dab4742327dc76564df::_cbrt&#45;&gt;0x2005995a71243be9fb995dab4742327dc76564df::_snekmate_log_2 -->
<g id="edge1" class="edge">
<title>0x2005995a71243be9fb995dab4742327dc76564df::_cbrt&#45;&gt;0x2005995a71243be9fb995dab4742327dc76564df::_snekmate_log_2</title>
<path fill="none" stroke="black" d="M724.29,-94C755.38,-94 788.58,-94 820.92,-94"/>
<polygon fill="black" stroke="black" points="820.93,-97.5 830.93,-94 820.93,-90.5 820.93,-97.5"/>
<text text-anchor="middle" x="784.5" y="-97.8" font-family="Times,serif" font-size="14.00">internal</text>
</g>
<!-- 0x2005995a71243be9fb995dab4742327dc76564df::_newton_y -->
<g id="node2" class="node">
<title>0x2005995a71243be9fb995dab4742327dc76564df::_newton_y</title>
<polygon fill="none" stroke="black" points="738,-47 414,-47 414,-11 738,-11 738,-47"/>
<text text-anchor="middle" x="576" y="-32" font-family="Times,serif" font-size="10.00">0x2005995a71243be9fb995dab4742327dc76564df._newton_y</text>
<text text-anchor="middle" x="576" y="-21" font-family="Times,serif" font-size="10.00">[internal]</text>
</g>
<!-- 0x2005995a71243be9fb995dab4742327dc76564df::get_p -->
<g id="node4" class="node">
<title>0x2005995a71243be9fb995dab4742327dc76564df::get_p</title>
<polygon fill="none" stroke="black" points="310,-155 11,-155 11,-119 310,-119 310,-155"/>
<text text-anchor="middle" x="160.5" y="-140" font-family="Times,serif" font-size="10.00">0x2005995a71243be9fb995dab4742327dc76564df.get_p</text>
<text text-anchor="middle" x="160.5" y="-129" font-family="Times,serif" font-size="10.00">[external]</text>
</g>
<!-- 0x2005995a71243be9fb995dab4742327dc76564df::get_y -->
<g id="node5" class="node">
<title>0x2005995a71243be9fb995dab4742327dc76564df::get_y</title>
<polygon fill="none" stroke="black" points="309.5,-101 11.5,-101 11.5,-65 309.5,-65 309.5,-101"/>
<text text-anchor="middle" x="160.5" y="-86" font-family="Times,serif" font-size="10.00">0x2005995a71243be9fb995dab4742327dc76564df.get_y</text>
<text text-anchor="middle" x="160.5" y="-75" font-family="Times,serif" font-size="10.00">[external]</text>
</g>
<!-- 0x2005995a71243be9fb995dab4742327dc76564df::get_y&#45;&gt;0x2005995a71243be9fb995dab4742327dc76564df::_cbrt -->
<g id="edge2" class="edge">
<title>0x2005995a71243be9fb995dab4742327dc76564df::get_y&#45;&gt;0x2005995a71243be9fb995dab4742327dc76564df::_cbrt</title>
<path fill="none" stroke="black" d="M309.62,-86.94C344.63,-87.87 382.09,-88.87 417.5,-89.81"/>
<polygon fill="black" stroke="black" points="417.83,-93.32 427.92,-90.09 418.02,-86.32 417.83,-93.32"/>
<text text-anchor="middle" x="367.5" y="-92.8" font-family="Times,serif" font-size="14.00">internal</text>
</g>
<!-- 0x2005995a71243be9fb995dab4742327dc76564df::get_y&#45;&gt;0x2005995a71243be9fb995dab4742327dc76564df::_newton_y -->
<g id="edge3" class="edge">
<title>0x2005995a71243be9fb995dab4742327dc76564df::get_y&#45;&gt;0x2005995a71243be9fb995dab4742327dc76564df::_newton_y</title>
<path fill="none" stroke="black" d="M299.48,-64.98C340.46,-59.63 385.52,-53.75 427.1,-48.31"/>
<polygon fill="black" stroke="black" points="427.57,-51.78 437.04,-47.02 426.67,-44.84 427.57,-51.78"/>
<text text-anchor="middle" x="367.5" y="-63.8" font-family="Times,serif" font-size="14.00">internal</text>
</g>
<!-- 0x2005995a71243be9fb995dab4742327dc76564df::newton_D -->
<g id="node6" class="node">
<title>0x2005995a71243be9fb995dab4742327dc76564df::newton_D</title>
<polygon fill="none" stroke="black" points="321,-209 0,-209 0,-173 321,-173 321,-209"/>
<text text-anchor="middle" x="160.5" y="-194" font-family="Times,serif" font-size="10.00">0x2005995a71243be9fb995dab4742327dc76564df.newton_D</text>
<text text-anchor="middle" x="160.5" y="-183" font-family="Times,serif" font-size="10.00">[external]</text>
</g>
<!-- 0x2005995a71243be9fb995dab4742327dc76564df::newton_y -->
<g id="node7" class="node">
<title>0x2005995a71243be9fb995dab4742327dc76564df::newton_y</title>
<polygon fill="none" stroke="black" points="320,-36 1,-36 1,0 320,0 320,-36"/>
<text text-anchor="middle" x="160.5" y="-21" font-family="Times,serif" font-size="10.00">0x2005995a71243be9fb995dab4742327dc76564df.newton_y</text>
<text text-anchor="middle" x="160.5" y="-10" font-family="Times,serif" font-size="10.00">[external]</text>
</g>
<!-- 0x2005995a71243be9fb995dab4742327dc76564df::newton_y&#45;&gt;0x2005995a71243be9fb995dab4742327dc76564df::_newton_y -->
<g id="edge4" class="edge">
<title>0x2005995a71243be9fb995dab4742327dc76564df::newton_y&#45;&gt;0x2005995a71243be9fb995dab4742327dc76564df::_newton_y</title>
<path fill="none" stroke="black" d="M320.14,-17.57C345.52,-17.82 371.48,-18.26 396,-19 398.43,-19.07 400.87,-19.15 403.34,-19.23"/>
<polygon fill="black" stroke="black" points="403.41,-22.74 413.53,-19.6 403.66,-15.74 403.41,-22.74"/>
<text text-anchor="middle" x="367.5" y="-22.8" font-family="Times,serif" font-size="14.00">internal</text>
</g>
<!-- 0x2005995a71243be9fb995dab4742327dc76564df::wad_exp -->
<g id="node8" class="node">
<title>0x2005995a71243be9fb995dab4742327dc76564df::wad_exp</title>
<polygon fill="none" stroke="black" points="318,-263 3,-263 3,-227 318,-227 318,-263"/>
<text text-anchor="middle" x="160.5" y="-248" font-family="Times,serif" font-size="10.00">0x2005995a71243be9fb995dab4742327dc76564df.wad_exp</text>
<text text-anchor="middle" x="160.5" y="-237" font-family="Times,serif" font-size="10.00">[external]</text>
</g>
</g>
</svg>
