<?xml version="1.0" encoding="UTF-8" standalone="no"?>
<!DOCTYPE svg PUBLIC "-//W3C//DTD SVG 1.1//EN"
 "http://www.w3.org/Graphics/SVG/1.1/DTD/svg11.dtd">
<!-- Generated by graphviz version 2.43.0 (0)
 -->
<!-- Title: callgraph Pages: 1 -->
<svg width="373pt" height="584pt"
 viewBox="0.00 0.00 373.00 584.00" xmlns="http://www.w3.org/2000/svg" xmlns:xlink="http://www.w3.org/1999/xlink">
<g id="graph0" class="graph" transform="scale(1 1) rotate(0) translate(4 580)">
<title>callgraph</title>
<polygon fill="white" stroke="transparent" points="-4,4 -4,-580 369,-580 369,4 -4,4"/>
<!-- 0x3175df0976dfa876431c2e9ee6bc45b65d3473cc::__init__ -->
<g id="node1" class="node">
<title>0x3175df0976dfa876431c2e9ee6bc45b65d3473cc::__init__</title>
<polygon fill="none" stroke="black" points="335,-36 30,-36 30,0 335,0 335,-36"/>
<text text-anchor="middle" x="182.5" y="-21" font-family="Times,serif" font-size="10.00">0x3175df0976dfa876431c2e9ee6bc45b65d3473cc.__init__</text>
<text text-anchor="middle" x="182.5" y="-10" font-family="Times,serif" font-size="10.00">[external]</text>
</g>
<!-- 0x3175df0976dfa876431c2e9ee6bc45b65d3473cc::approve -->
<g id="node2" class="node">
<title>0x3175df0976dfa876431c2e9ee6bc45b65d3473cc::approve</title>
<polygon fill="none" stroke="black" points="337.5,-90 27.5,-90 27.5,-54 337.5,-54 337.5,-90"/>
<text text-anchor="middle" x="182.5" y="-75" font-family="Times,serif" font-size="10.00">0x3175df0976dfa876431c2e9ee6bc45b65d3473cc.approve</text>
<text text-anchor="middle" x="182.5" y="-64" font-family="Times,serif" font-size="10.00">[external]</text>
</g>
<!-- 0x3175df0976dfa876431c2e9ee6bc45b65d3473cc::burnFrom -->
<g id="node3" class="node">
<title>0x3175df0976dfa876431c2e9ee6bc45b65d3473cc::burnFrom</title>
<polygon fill="none" stroke="black" points="342.5,-144 22.5,-144 22.5,-108 342.5,-108 342.5,-144"/>
<text text-anchor="middle" x="182.5" y="-129" font-family="Times,serif" font-size="10.00">0x3175df0976dfa876431c2e9ee6bc45b65d3473cc.burnFrom</text>
<text text-anchor="middle" x="182.5" y="-118" font-family="Times,serif" font-size="10.00">[external]</text>
</g>
<!-- 0x3175df0976dfa876431c2e9ee6bc45b65d3473cc::decimals -->
<g id="node4" class="node">
<title>0x3175df0976dfa876431c2e9ee6bc45b65d3473cc::decimals</title>
<polygon fill="none" stroke="black" points="339,-198 26,-198 26,-162 339,-162 339,-198"/>
<text text-anchor="middle" x="182.5" y="-183" font-family="Times,serif" font-size="10.00">0x3175df0976dfa876431c2e9ee6bc45b65d3473cc.decimals</text>
<text text-anchor="middle" x="182.5" y="-172" font-family="Times,serif" font-size="10.00">[external]</text>
</g>
<!-- 0x3175df0976dfa876431c2e9ee6bc45b65d3473cc::decreaseAllowance -->
<g id="node5" class="node">
<title>0x3175df0976dfa876431c2e9ee6bc45b65d3473cc::decreaseAllowance</title>
<polygon fill="none" stroke="black" points="365,-252 0,-252 0,-216 365,-216 365,-252"/>
<text text-anchor="middle" x="182.5" y="-237" font-family="Times,serif" font-size="10.00">0x3175df0976dfa876431c2e9ee6bc45b65d3473cc.decreaseAllowance</text>
<text text-anchor="middle" x="182.5" y="-226" font-family="Times,serif" font-size="10.00">[external]</text>
</g>
<!-- 0x3175df0976dfa876431c2e9ee6bc45b65d3473cc::increaseAllowance -->
<g id="node6" class="node">
<title>0x3175df0976dfa876431c2e9ee6bc45b65d3473cc::increaseAllowance</title>
<polygon fill="none" stroke="black" points="363.5,-306 1.5,-306 1.5,-270 363.5,-270 363.5,-306"/>
<text text-anchor="middle" x="182.5" y="-291" font-family="Times,serif" font-size="10.00">0x3175df0976dfa876431c2e9ee6bc45b65d3473cc.increaseAllowance</text>
<text text-anchor="middle" x="182.5" y="-280" font-family="Times,serif" font-size="10.00">[external]</text>
</g>
<!-- 0x3175df0976dfa876431c2e9ee6bc45b65d3473cc::mint -->
<g id="node7" class="node">
<title>0x3175df0976dfa876431c2e9ee6bc45b65d3473cc::mint</title>
<polygon fill="none" stroke="black" points="328,-360 37,-360 37,-324 328,-324 328,-360"/>
<text text-anchor="middle" x="182.5" y="-345" font-family="Times,serif" font-size="10.00">0x3175df0976dfa876431c2e9ee6bc45b65d3473cc.mint</text>
<text text-anchor="middle" x="182.5" y="-334" font-family="Times,serif" font-size="10.00">[external]</text>
</g>
<!-- 0x3175df0976dfa876431c2e9ee6bc45b65d3473cc::set_minter -->
<g id="node8" class="node">
<title>0x3175df0976dfa876431c2e9ee6bc45b65d3473cc::set_minter</title>
<polygon fill="none" stroke="black" points="343.5,-414 21.5,-414 21.5,-378 343.5,-378 343.5,-414"/>
<text text-anchor="middle" x="182.5" y="-399" font-family="Times,serif" font-size="10.00">0x3175df0976dfa876431c2e9ee6bc45b65d3473cc.set_minter</text>
<text text-anchor="middle" x="182.5" y="-388" font-family="Times,serif" font-size="10.00">[external]</text>
</g>
<!-- 0x3175df0976dfa876431c2e9ee6bc45b65d3473cc::set_name -->
<g id="node9" class="node">
<title>0x3175df0976dfa876431c2e9ee6bc45b65d3473cc::set_name</title>
<polygon fill="none" stroke="black" points="341,-468 24,-468 24,-432 341,-432 341,-468"/>
<text text-anchor="middle" x="182.5" y="-453" font-family="Times,serif" font-size="10.00">0x3175df0976dfa876431c2e9ee6bc45b65d3473cc.set_name</text>
<text text-anchor="middle" x="182.5" y="-442" font-family="Times,serif" font-size="10.00">[external]</text>
</g>
<!-- 0x3175df0976dfa876431c2e9ee6bc45b65d3473cc::transfer -->
<g id="node10" class="node">
<title>0x3175df0976dfa876431c2e9ee6bc45b65d3473cc::transfer</title>
<polygon fill="none" stroke="black" points="336.5,-522 28.5,-522 28.5,-486 336.5,-486 336.5,-522"/>
<text text-anchor="middle" x="182.5" y="-507" font-family="Times,serif" font-size="10.00">0x3175df0976dfa876431c2e9ee6bc45b65d3473cc.transfer</text>
<text text-anchor="middle" x="182.5" y="-496" font-family="Times,serif" font-size="10.00">[external]</text>
</g>
<!-- 0x3175df0976dfa876431c2e9ee6bc45b65d3473cc::transferFrom -->
<g id="node11" class="node">
<title>0x3175df0976dfa876431c2e9ee6bc45b65d3473cc::transferFrom</title>
<polygon fill="none" stroke="black" points="350,-576 15,-576 15,-540 350,-540 350,-576"/>
<text text-anchor="middle" x="182.5" y="-561" font-family="Times,serif" font-size="10.00">0x3175df0976dfa876431c2e9ee6bc45b65d3473cc.transferFrom</text>
<text text-anchor="middle" x="182.5" y="-550" font-family="Times,serif" font-size="10.00">[external]</text>
</g>
</g>
</svg>
