<?xml version="1.0" encoding="UTF-8" standalone="no"?>
<!DOCTYPE svg PUBLIC "-//W3C//DTD SVG 1.1//EN"
 "http://www.w3.org/Graphics/SVG/1.1/DTD/svg11.dtd">
<!-- Generated by graphviz version 2.43.0 (0)
 -->
<!-- Title: callgraph Pages: 1 -->
<svg width="373pt" height="692pt"
 viewBox="0.00 0.00 373.00 692.00" xmlns="http://www.w3.org/2000/svg" xmlns:xlink="http://www.w3.org/1999/xlink">
<g id="graph0" class="graph" transform="scale(1 1) rotate(0) translate(4 688)">
<title>callgraph</title>
<polygon fill="white" stroke="transparent" points="-4,4 -4,-688 369,-688 369,4 -4,4"/>
<!-- 0x421e13b4e805993a0d50ad8c6c47a4f693f04424::__init__ -->
<g id="node1" class="node">
<title>0x421e13b4e805993a0d50ad8c6c47a4f693f04424::__init__</title>
<polygon fill="none" stroke="black" points="335,-36 30,-36 30,0 335,0 335,-36"/>
<text text-anchor="middle" x="182.5" y="-21" font-family="Times,serif" font-size="10.00">0x421e13b4e805993a0d50ad8c6c47a4f693f04424.__init__</text>
<text text-anchor="middle" x="182.5" y="-10" font-family="Times,serif" font-size="10.00">[external]</text>
</g>
<!-- 0x421e13b4e805993a0d50ad8c6c47a4f693f04424::approve -->
<g id="node2" class="node">
<title>0x421e13b4e805993a0d50ad8c6c47a4f693f04424::approve</title>
<polygon fill="none" stroke="black" points="337.5,-90 27.5,-90 27.5,-54 337.5,-54 337.5,-90"/>
<text text-anchor="middle" x="182.5" y="-75" font-family="Times,serif" font-size="10.00">0x421e13b4e805993a0d50ad8c6c47a4f693f04424.approve</text>
<text text-anchor="middle" x="182.5" y="-64" font-family="Times,serif" font-size="10.00">[external]</text>
</g>
<!-- 0x421e13b4e805993a0d50ad8c6c47a4f693f04424::burnFrom -->
<g id="node3" class="node">
<title>0x421e13b4e805993a0d50ad8c6c47a4f693f04424::burnFrom</title>
<polygon fill="none" stroke="black" points="342.5,-144 22.5,-144 22.5,-108 342.5,-108 342.5,-144"/>
<text text-anchor="middle" x="182.5" y="-129" font-family="Times,serif" font-size="10.00">0x421e13b4e805993a0d50ad8c6c47a4f693f04424.burnFrom</text>
<text text-anchor="middle" x="182.5" y="-118" font-family="Times,serif" font-size="10.00">[external]</text>
</g>
<!-- 0x421e13b4e805993a0d50ad8c6c47a4f693f04424::decimals -->
<g id="node4" class="node">
<title>0x421e13b4e805993a0d50ad8c6c47a4f693f04424::decimals</title>
<polygon fill="none" stroke="black" points="339,-198 26,-198 26,-162 339,-162 339,-198"/>
<text text-anchor="middle" x="182.5" y="-183" font-family="Times,serif" font-size="10.00">0x421e13b4e805993a0d50ad8c6c47a4f693f04424.decimals</text>
<text text-anchor="middle" x="182.5" y="-172" font-family="Times,serif" font-size="10.00">[external]</text>
</g>
<!-- 0x421e13b4e805993a0d50ad8c6c47a4f693f04424::decreaseAllowance -->
<g id="node5" class="node">
<title>0x421e13b4e805993a0d50ad8c6c47a4f693f04424::decreaseAllowance</title>
<polygon fill="none" stroke="black" points="365,-252 0,-252 0,-216 365,-216 365,-252"/>
<text text-anchor="middle" x="182.5" y="-237" font-family="Times,serif" font-size="10.00">0x421e13b4e805993a0d50ad8c6c47a4f693f04424.decreaseAllowance</text>
<text text-anchor="middle" x="182.5" y="-226" font-family="Times,serif" font-size="10.00">[external]</text>
</g>
<!-- 0x421e13b4e805993a0d50ad8c6c47a4f693f04424::increaseAllowance -->
<g id="node6" class="node">
<title>0x421e13b4e805993a0d50ad8c6c47a4f693f04424::increaseAllowance</title>
<polygon fill="none" stroke="black" points="363.5,-306 1.5,-306 1.5,-270 363.5,-270 363.5,-306"/>
<text text-anchor="middle" x="182.5" y="-291" font-family="Times,serif" font-size="10.00">0x421e13b4e805993a0d50ad8c6c47a4f693f04424.increaseAllowance</text>
<text text-anchor="middle" x="182.5" y="-280" font-family="Times,serif" font-size="10.00">[external]</text>
</g>
<!-- 0x421e13b4e805993a0d50ad8c6c47a4f693f04424::initialize -->
<g id="node7" class="node">
<title>0x421e13b4e805993a0d50ad8c6c47a4f693f04424::initialize</title>
<polygon fill="none" stroke="black" points="338,-360 27,-360 27,-324 338,-324 338,-360"/>
<text text-anchor="middle" x="182.5" y="-345" font-family="Times,serif" font-size="10.00">0x421e13b4e805993a0d50ad8c6c47a4f693f04424.initialize</text>
<text text-anchor="middle" x="182.5" y="-334" font-family="Times,serif" font-size="10.00">[external]</text>
</g>
<!-- 0x421e13b4e805993a0d50ad8c6c47a4f693f04424::mint -->
<g id="node8" class="node">
<title>0x421e13b4e805993a0d50ad8c6c47a4f693f04424::mint</title>
<polygon fill="none" stroke="black" points="328,-414 37,-414 37,-378 328,-378 328,-414"/>
<text text-anchor="middle" x="182.5" y="-399" font-family="Times,serif" font-size="10.00">0x421e13b4e805993a0d50ad8c6c47a4f693f04424.mint</text>
<text text-anchor="middle" x="182.5" y="-388" font-family="Times,serif" font-size="10.00">[external]</text>
</g>
<!-- 0x421e13b4e805993a0d50ad8c6c47a4f693f04424::mint_relative -->
<g id="node9" class="node">
<title>0x421e13b4e805993a0d50ad8c6c47a4f693f04424::mint_relative</title>
<polygon fill="none" stroke="black" points="350,-468 15,-468 15,-432 350,-432 350,-468"/>
<text text-anchor="middle" x="182.5" y="-453" font-family="Times,serif" font-size="10.00">0x421e13b4e805993a0d50ad8c6c47a4f693f04424.mint_relative</text>
<text text-anchor="middle" x="182.5" y="-442" font-family="Times,serif" font-size="10.00">[external]</text>
</g>
<!-- 0x421e13b4e805993a0d50ad8c6c47a4f693f04424::permit -->
<g id="node10" class="node">
<title>0x421e13b4e805993a0d50ad8c6c47a4f693f04424::permit</title>
<polygon fill="none" stroke="black" points="333.5,-522 31.5,-522 31.5,-486 333.5,-486 333.5,-522"/>
<text text-anchor="middle" x="182.5" y="-507" font-family="Times,serif" font-size="10.00">0x421e13b4e805993a0d50ad8c6c47a4f693f04424.permit</text>
<text text-anchor="middle" x="182.5" y="-496" font-family="Times,serif" font-size="10.00">[external]</text>
</g>
<!-- 0x421e13b4e805993a0d50ad8c6c47a4f693f04424::transfer -->
<g id="node11" class="node">
<title>0x421e13b4e805993a0d50ad8c6c47a4f693f04424::transfer</title>
<polygon fill="none" stroke="black" points="336.5,-576 28.5,-576 28.5,-540 336.5,-540 336.5,-576"/>
<text text-anchor="middle" x="182.5" y="-561" font-family="Times,serif" font-size="10.00">0x421e13b4e805993a0d50ad8c6c47a4f693f04424.transfer</text>
<text text-anchor="middle" x="182.5" y="-550" font-family="Times,serif" font-size="10.00">[external]</text>
</g>
<!-- 0x421e13b4e805993a0d50ad8c6c47a4f693f04424::transferFrom -->
<g id="node12" class="node">
<title>0x421e13b4e805993a0d50ad8c6c47a4f693f04424::transferFrom</title>
<polygon fill="none" stroke="black" points="350,-630 15,-630 15,-594 350,-594 350,-630"/>
<text text-anchor="middle" x="182.5" y="-615" font-family="Times,serif" font-size="10.00">0x421e13b4e805993a0d50ad8c6c47a4f693f04424.transferFrom</text>
<text text-anchor="middle" x="182.5" y="-604" font-family="Times,serif" font-size="10.00">[external]</text>
</g>
<!-- 0x421e13b4e805993a0d50ad8c6c47a4f693f04424::version -->
<g id="node13" class="node">
<title>0x421e13b4e805993a0d50ad8c6c47a4f693f04424::version</title>
<polygon fill="none" stroke="black" points="335,-684 30,-684 30,-648 335,-648 335,-684"/>
<text text-anchor="middle" x="182.5" y="-669" font-family="Times,serif" font-size="10.00">0x421e13b4e805993a0d50ad8c6c47a4f693f04424.version</text>
<text text-anchor="middle" x="182.5" y="-658" font-family="Times,serif" font-size="10.00">[external]</text>
</g>
</g>
</svg>
