<?xml version="1.0" encoding="UTF-8" standalone="no"?>
<!DOCTYPE svg PUBLIC "-//W3C//DTD SVG 1.1//EN"
 "http://www.w3.org/Graphics/SVG/1.1/DTD/svg11.dtd">
<!-- Generated by graphviz version 2.43.0 (0)
 -->
<!-- Title: callgraph Pages: 1 -->
<svg width="611pt" height="692pt"
 viewBox="0.00 0.00 610.63 692.00" xmlns="http://www.w3.org/2000/svg" xmlns:xlink="http://www.w3.org/1999/xlink">
<g id="graph0" class="graph" transform="scale(1 1) rotate(0) translate(4 688)">
<title>callgraph</title>
<polygon fill="white" stroke="transparent" points="-4,4 -4,-688 606.63,-688 606.63,4 -4,4"/>
<!-- 0xc08550a4cc5333f40e593ecc4c4724808085d304::__init__ -->
<g id="node1" class="node">
<title>0xc08550a4cc5333f40e593ecc4c4724808085d304::__init__</title>
<polygon fill="none" stroke="black" points="333,-36 30,-36 30,0 333,0 333,-36"/>
<text text-anchor="middle" x="181.5" y="-21" font-family="Times,serif" font-size="10.00">0xc08550a4cc5333f40e593ecc4c4724808085d304.__init__</text>
<text text-anchor="middle" x="181.5" y="-10" font-family="Times,serif" font-size="10.00">[external]</text>
</g>
<!-- 0xc08550a4cc5333f40e593ecc4c4724808085d304::approve -->
<g id="node2" class="node">
<title>0xc08550a4cc5333f40e593ecc4c4724808085d304::approve</title>
<polygon fill="none" stroke="black" points="335.5,-90 27.5,-90 27.5,-54 335.5,-54 335.5,-90"/>
<text text-anchor="middle" x="181.5" y="-75" font-family="Times,serif" font-size="10.00">0xc08550a4cc5333f40e593ecc4c4724808085d304.approve</text>
<text text-anchor="middle" x="181.5" y="-64" font-family="Times,serif" font-size="10.00">[external]</text>
</g>
<!-- 0xc08550a4cc5333f40e593ecc4c4724808085d304::burnFrom -->
<g id="node3" class="node">
<title>0xc08550a4cc5333f40e593ecc4c4724808085d304::burnFrom</title>
<polygon fill="none" stroke="black" points="340,-144 23,-144 23,-108 340,-108 340,-144"/>
<text text-anchor="middle" x="181.5" y="-129" font-family="Times,serif" font-size="10.00">0xc08550a4cc5333f40e593ecc4c4724808085d304.burnFrom</text>
<text text-anchor="middle" x="181.5" y="-118" font-family="Times,serif" font-size="10.00">[external]</text>
</g>
<!-- 0xc08550a4cc5333f40e593ecc4c4724808085d304::decimals -->
<g id="node4" class="node">
<title>0xc08550a4cc5333f40e593ecc4c4724808085d304::decimals</title>
<polygon fill="none" stroke="black" points="337,-198 26,-198 26,-162 337,-162 337,-198"/>
<text text-anchor="middle" x="181.5" y="-183" font-family="Times,serif" font-size="10.00">0xc08550a4cc5333f40e593ecc4c4724808085d304.decimals</text>
<text text-anchor="middle" x="181.5" y="-172" font-family="Times,serif" font-size="10.00">[external]</text>
</g>
<!-- 0xc08550a4cc5333f40e593ecc4c4724808085d304::decreaseAllowance -->
<g id="node5" class="node">
<title>0xc08550a4cc5333f40e593ecc4c4724808085d304::decreaseAllowance</title>
<polygon fill="none" stroke="black" points="363,-252 0,-252 0,-216 363,-216 363,-252"/>
<text text-anchor="middle" x="181.5" y="-237" font-family="Times,serif" font-size="10.00">0xc08550a4cc5333f40e593ecc4c4724808085d304.decreaseAllowance</text>
<text text-anchor="middle" x="181.5" y="-226" font-family="Times,serif" font-size="10.00">[external]</text>
</g>
<!-- 0xc08550a4cc5333f40e593ecc4c4724808085d304::increaseAllowance -->
<g id="node6" class="node">
<title>0xc08550a4cc5333f40e593ecc4c4724808085d304::increaseAllowance</title>
<polygon fill="none" stroke="black" points="361.5,-306 1.5,-306 1.5,-270 361.5,-270 361.5,-306"/>
<text text-anchor="middle" x="181.5" y="-291" font-family="Times,serif" font-size="10.00">0xc08550a4cc5333f40e593ecc4c4724808085d304.increaseAllowance</text>
<text text-anchor="middle" x="181.5" y="-280" font-family="Times,serif" font-size="10.00">[external]</text>
</g>
<!-- 0xc08550a4cc5333f40e593ecc4c4724808085d304::initialize -->
<g id="node7" class="node">
<title>0xc08550a4cc5333f40e593ecc4c4724808085d304::initialize</title>
<polygon fill="none" stroke="black" points="335.5,-360 27.5,-360 27.5,-324 335.5,-324 335.5,-360"/>
<text text-anchor="middle" x="181.5" y="-345" font-family="Times,serif" font-size="10.00">0xc08550a4cc5333f40e593ecc4c4724808085d304.initialize</text>
<text text-anchor="middle" x="181.5" y="-334" font-family="Times,serif" font-size="10.00">[external]</text>
</g>
<!-- 0xc08550a4cc5333f40e593ecc4c4724808085d304::mint -->
<g id="node8" class="node">
<title>0xc08550a4cc5333f40e593ecc4c4724808085d304::mint</title>
<polygon fill="none" stroke="black" points="326,-414 37,-414 37,-378 326,-378 326,-414"/>
<text text-anchor="middle" x="181.5" y="-399" font-family="Times,serif" font-size="10.00">0xc08550a4cc5333f40e593ecc4c4724808085d304.mint</text>
<text text-anchor="middle" x="181.5" y="-388" font-family="Times,serif" font-size="10.00">[external]</text>
</g>
<!-- 0xc08550a4cc5333f40e593ecc4c4724808085d304::mint_relative -->
<g id="node9" class="node">
<title>0xc08550a4cc5333f40e593ecc4c4724808085d304::mint_relative</title>
<polygon fill="none" stroke="black" points="347.5,-468 15.5,-468 15.5,-432 347.5,-432 347.5,-468"/>
<text text-anchor="middle" x="181.5" y="-453" font-family="Times,serif" font-size="10.00">0xc08550a4cc5333f40e593ecc4c4724808085d304.mint_relative</text>
<text text-anchor="middle" x="181.5" y="-442" font-family="Times,serif" font-size="10.00">[external]</text>
</g>
<!-- 0xc08550a4cc5333f40e593ecc4c4724808085d304::permit -->
<g id="node10" class="node">
<title>0xc08550a4cc5333f40e593ecc4c4724808085d304::permit</title>
<polygon fill="none" stroke="black" points="331,-522 32,-522 32,-486 331,-486 331,-522"/>
<text text-anchor="middle" x="181.5" y="-507" font-family="Times,serif" font-size="10.00">0xc08550a4cc5333f40e593ecc4c4724808085d304.permit</text>
<text text-anchor="middle" x="181.5" y="-496" font-family="Times,serif" font-size="10.00">[external]</text>
</g>
<!-- unknown::Call.isValidSignature -->
<g id="node14" class="node">
<title>unknown::Call.isValidSignature</title>
<ellipse fill="none" stroke="black" cx="530.82" cy="-504" rx="71.63" ry="18"/>
<text text-anchor="middle" x="530.82" y="-501.5" font-family="Times,serif" font-size="10.00">Call.isValidSignature</text>
</g>
<!-- 0xc08550a4cc5333f40e593ecc4c4724808085d304::permit&#45;&gt;unknown::Call.isValidSignature -->
<g id="edge1" class="edge">
<title>0xc08550a4cc5333f40e593ecc4c4724808085d304::permit&#45;&gt;unknown::Call.isValidSignature</title>
<path fill="none" stroke="red" d="M331.05,-504C371.3,-504 413.38,-504 448.41,-504"/>
<polygon fill="red" stroke="red" points="448.57,-507.5 458.57,-504 448.57,-500.5 448.57,-507.5"/>
<text text-anchor="middle" x="411" y="-507.8" font-family="Times,serif" font-size="14.00">external</text>
</g>
<!-- 0xc08550a4cc5333f40e593ecc4c4724808085d304::transfer -->
<g id="node11" class="node">
<title>0xc08550a4cc5333f40e593ecc4c4724808085d304::transfer</title>
<polygon fill="none" stroke="black" points="334.5,-576 28.5,-576 28.5,-540 334.5,-540 334.5,-576"/>
<text text-anchor="middle" x="181.5" y="-561" font-family="Times,serif" font-size="10.00">0xc08550a4cc5333f40e593ecc4c4724808085d304.transfer</text>
<text text-anchor="middle" x="181.5" y="-550" font-family="Times,serif" font-size="10.00">[external]</text>
</g>
<!-- 0xc08550a4cc5333f40e593ecc4c4724808085d304::transferFrom -->
<g id="node12" class="node">
<title>0xc08550a4cc5333f40e593ecc4c4724808085d304::transferFrom</title>
<polygon fill="none" stroke="black" points="348,-630 15,-630 15,-594 348,-594 348,-630"/>
<text text-anchor="middle" x="181.5" y="-615" font-family="Times,serif" font-size="10.00">0xc08550a4cc5333f40e593ecc4c4724808085d304.transferFrom</text>
<text text-anchor="middle" x="181.5" y="-604" font-family="Times,serif" font-size="10.00">[external]</text>
</g>
<!-- 0xc08550a4cc5333f40e593ecc4c4724808085d304::version -->
<g id="node13" class="node">
<title>0xc08550a4cc5333f40e593ecc4c4724808085d304::version</title>
<polygon fill="none" stroke="black" points="333,-684 30,-684 30,-648 333,-648 333,-684"/>
<text text-anchor="middle" x="181.5" y="-669" font-family="Times,serif" font-size="10.00">0xc08550a4cc5333f40e593ecc4c4724808085d304.version</text>
<text text-anchor="middle" x="181.5" y="-658" font-family="Times,serif" font-size="10.00">[external]</text>
</g>
</g>
</svg>
