<?xml version="1.0" encoding="UTF-8" standalone="no"?>
<!DOCTYPE svg PUBLIC "-//W3C//DTD SVG 1.1//EN"
 "http://www.w3.org/Graphics/SVG/1.1/DTD/svg11.dtd">
<!-- Generated by graphviz version 2.43.0 (0)
 -->
<!-- Title: callgraph Pages: 1 -->
<svg width="552pt" height="260pt"
 viewBox="0.00 0.00 552.00 260.00" xmlns="http://www.w3.org/2000/svg" xmlns:xlink="http://www.w3.org/1999/xlink">
<g id="graph0" class="graph" transform="scale(1 1) rotate(0) translate(4 256)">
<title>callgraph</title>
<polygon fill="white" stroke="transparent" points="-4,4 -4,-256 548,-256 548,4 -4,4"/>
<!-- WETH9::WETH9.approve(address,uint256) -->
<g id="node1" class="node">
<title>WETH9::WETH9.approve(address,uint256)</title>
<polygon fill="none" stroke="black" points="191,-36 0,-36 0,0 191,0 191,-36"/>
<text text-anchor="middle" x="95.5" y="-21" font-family="Times,serif" font-size="10.00">WETH9.approve(address,uint256)</text>
<text text-anchor="middle" x="95.5" y="-10" font-family="Times,serif" font-size="10.00">[public]</text>
</g>
<!-- WETH9::WETH9.deposit() -->
<g id="node2" class="node">
<title>WETH9::WETH9.deposit()</title>
<polygon fill="none" stroke="black" points="466,-90 362,-90 362,-54 466,-54 466,-90"/>
<text text-anchor="middle" x="414" y="-75" font-family="Times,serif" font-size="10.00">WETH9.deposit()</text>
<text text-anchor="middle" x="414" y="-64" font-family="Times,serif" font-size="10.00">[public]</text>
</g>
<!-- WETH9::WETH9.fallback() -->
<g id="node3" class="node">
<title>WETH9::WETH9.fallback()</title>
<polygon fill="none" stroke="black" points="149,-90 42,-90 42,-54 149,-54 149,-90"/>
<text text-anchor="middle" x="95.5" y="-75" font-family="Times,serif" font-size="10.00">WETH9.fallback()</text>
<text text-anchor="middle" x="95.5" y="-64" font-family="Times,serif" font-size="10.00">[public]</text>
</g>
<!-- WETH9::WETH9.fallback()&#45;&gt;WETH9::WETH9.deposit() -->
<g id="edge1" class="edge">
<title>WETH9::WETH9.fallback()&#45;&gt;WETH9::WETH9.deposit()</title>
<path fill="none" stroke="black" d="M149.12,-72C204.83,-72 292.7,-72 351.56,-72"/>
<polygon fill="black" stroke="black" points="351.83,-75.5 361.83,-72 351.83,-68.5 351.83,-75.5"/>
<text text-anchor="middle" x="237.5" y="-75.8" font-family="Times,serif" font-size="14.00">internal</text>
</g>
<!-- WETH9::WETH9.totalSupply() -->
<g id="node4" class="node">
<title>WETH9::WETH9.totalSupply()</title>
<polygon fill="none" stroke="black" points="158,-144 33,-144 33,-108 158,-108 158,-144"/>
<text text-anchor="middle" x="95.5" y="-129" font-family="Times,serif" font-size="10.00">WETH9.totalSupply()</text>
<text text-anchor="middle" x="95.5" y="-118" font-family="Times,serif" font-size="10.00">[public]</text>
</g>
<!-- WETH9::WETH9.transfer(address,uint256) -->
<g id="node5" class="node">
<title>WETH9::WETH9.transfer(address,uint256)</title>
<polygon fill="none" stroke="black" points="190,-198 1,-198 1,-162 190,-162 190,-198"/>
<text text-anchor="middle" x="95.5" y="-183" font-family="Times,serif" font-size="10.00">WETH9.transfer(address,uint256)</text>
<text text-anchor="middle" x="95.5" y="-172" font-family="Times,serif" font-size="10.00">[public]</text>
</g>
<!-- WETH9::WETH9.transferFrom(address,address,uint256) -->
<g id="node6" class="node">
<title>WETH9::WETH9.transferFrom(address,address,uint256)</title>
<polygon fill="none" stroke="black" points="544,-198 284,-198 284,-162 544,-162 544,-198"/>
<text text-anchor="middle" x="414" y="-183" font-family="Times,serif" font-size="10.00">WETH9.transferFrom(address,address,uint256)</text>
<text text-anchor="middle" x="414" y="-172" font-family="Times,serif" font-size="10.00">[public]</text>
</g>
<!-- WETH9::WETH9.transfer(address,uint256)&#45;&gt;WETH9::WETH9.transferFrom(address,address,uint256) -->
<g id="edge2" class="edge">
<title>WETH9::WETH9.transfer(address,uint256)&#45;&gt;WETH9::WETH9.transferFrom(address,address,uint256)</title>
<path fill="none" stroke="black" d="M190.18,-180C216.31,-180 245.29,-180 273.46,-180"/>
<polygon fill="black" stroke="black" points="273.8,-183.5 283.8,-180 273.8,-176.5 273.8,-183.5"/>
<text text-anchor="middle" x="237.5" y="-183.8" font-family="Times,serif" font-size="14.00">internal</text>
</g>
<!-- WETH9::WETH9.withdraw(uint256) -->
<g id="node7" class="node">
<title>WETH9::WETH9.withdraw(uint256)</title>
<polygon fill="none" stroke="black" points="171.5,-252 19.5,-252 19.5,-216 171.5,-216 171.5,-252"/>
<text text-anchor="middle" x="95.5" y="-237" font-family="Times,serif" font-size="10.00">WETH9.withdraw(uint256)</text>
<text text-anchor="middle" x="95.5" y="-226" font-family="Times,serif" font-size="10.00">[public]</text>
</g>
</g>
</svg>
